<?xml version="1.0" encoding="UTF-8" standalone="no"?>
<!-- Created with Inkscape (http://www.inkscape.org/) -->

<svg
   version="1.1"
   id="svg25"
   xml:space="preserve"
   width="123.592"
   height="177.49467"
   viewBox="0 0 123.592 177.49467"
   xmlns="http://www.w3.org/2000/svg"
   xmlns:svg="http://www.w3.org/2000/svg">
   <defs
     id="defs29" />
     <g
     id="g31"
     transform="matrix(1.3333333,0,0,-1.3333333,0,177.49467)"><g
       id="g33"
       transform="translate(11.822,9.911)"><g
         id="g35"><g
           id="g37"><g
             id="g39"><g
               id="g41"><path
                 d="M 9.71223,0 C 9.71223,5.36398 5.36398,9.71223 0,9.71223 -5.36398,9.71223 -9.71223,5.36398 -9.71223,0 c 0,-5.36398 4.34825,-9.71223 9.71223,-9.71223 5.36398,0 9.71223,4.34825 9.71223,9.71223 z"
                 style="fill:none;stroke:var(--color-main);stroke-width:0.3985;stroke-linecap:butt;stroke-linejoin:miter;stroke-miterlimit:10;stroke-dasharray:none;stroke-opacity:1"
                 id="path43" /></g><g
               id="g45"
               transform="translate(-3.736,-3.404)"><g
                 id="g47"><g
                   id="g49"
                   transform="translate(-8.086,-6.507)"><text
                     transform="matrix(1,0,0,-1,8.086,6.507)"
                     style="font-variant:normal;font-weight:normal;font-size:9.9626px;font-family:CMR10;-inkscape-font-specification:CMR10;writing-mode:lr-tb;fill:#000000;fill-opacity:1;fill-rule:nonzero;stroke:none"
                     id="text53"><tspan
                       x="0"
                       y="0"
                       id="tspan51">A</tspan></text><g
                     id="g55"
                     transform="translate(8.086,6.507)" /></g></g><g
                 id="g57"
                 transform="translate(3.736,3.404)" /></g></g><g
             id="g59"><g
               id="g61"><path
                 d="m 9.58113,85.04042 c 0,5.29158 -4.28955,9.58115 -9.58113,9.58115 -5.29158,0 -9.58113,-4.28957 -9.58113,-9.58115 0,-5.29158 4.28955,-9.58113 9.58113,-9.58113 5.29158,0 9.58113,4.28955 9.58113,9.58113 z"
                 style="fill:none;stroke:var(--color-main);stroke-width:0.3985;stroke-linecap:butt;stroke-linejoin:miter;stroke-miterlimit:10;stroke-dasharray:none;stroke-opacity:1"
                 id="path63" /></g><g
               id="g65"
               transform="translate(-3.529,81.636)"><g
                 id="g67"><g
                   id="g69"
                   transform="translate(-8.293,-91.547)"><text
                     transform="matrix(1,0,0,-1,8.293,91.547)"
                     style="font-variant:normal;font-weight:normal;font-size:9.9626px;font-family:CMR10;-inkscape-font-specification:CMR10;writing-mode:lr-tb;fill:#000000;fill-opacity:1;fill-rule:nonzero;stroke:none"
                     id="text73"><tspan
                       x="0"
                       y="0"
                       id="tspan71">B</tspan></text><g
                     id="g75"
                     transform="translate(8.293,91.547)" /></g></g><g
                 id="g77"
                 transform="translate(3.529,-81.636)" /></g></g><g
             id="g79"><g
               id="g81"><path
                 d="m 80.49217,113.38724 c 0,5.31589 -4.30928,9.62515 -9.62517,9.62515 -5.31588,0 -9.62515,-4.30926 -9.62515,-9.62515 0,-5.31589 4.30927,-9.62517 9.62515,-9.62517 5.31589,0 9.62517,4.30928 9.62517,9.62517 z"
                 style="fill:none;stroke:var(--color-main);stroke-width:0.3985;stroke-linecap:butt;stroke-linejoin:miter;stroke-miterlimit:10;stroke-dasharray:none;stroke-opacity:1"
                 id="path83" /></g><g
               id="g85"
               transform="translate(67.268,109.982)"><g
                 id="g87"><g
                   id="g89"
                   transform="translate(-79.09,-119.893)"><text
                     transform="matrix(1,0,0,-1,79.09,119.893)"
                     style="font-variant:normal;font-weight:normal;font-size:9.9626px;font-family:CMR10;-inkscape-font-specification:CMR10;writing-mode:lr-tb;fill:#000000;fill-opacity:1;fill-rule:nonzero;stroke:none"
                     id="text93"><tspan
                       x="0"
                       y="0"
                       id="tspan91">C</tspan></text><g
                     id="g95"
                     transform="translate(79.09,119.893)" /></g></g><g
                 id="g97"
                 transform="translate(-67.268,-109.982)" /></g></g><g
             id="g99"><g
               id="g101"><path
                 d="m 80.67435,28.3468 c 0,5.4165 -4.39083,9.80734 -9.80735,9.80734 -5.4165,0 -9.80734,-4.39084 -9.80734,-9.80734 0,-5.4165 4.39084,-9.80734 9.80734,-9.80734 5.41652,0 9.80735,4.39084 9.80735,9.80734 z"
                 style="fill:none;stroke:var(--color-main);stroke-width:0.3985;stroke-linecap:butt;stroke-linejoin:miter;stroke-miterlimit:10;stroke-dasharray:none;stroke-opacity:1"
                 id="path103" /></g><g
               id="g105"
               transform="translate(67.061,24.943)"><g
                 id="g107"><g
                   id="g109"
                   transform="translate(-78.883,-34.854)"><text
                     transform="matrix(1,0,0,-1,78.883,34.854)"
                     style="font-variant:normal;font-weight:normal;font-size:9.9626px;font-family:CMR10;-inkscape-font-specification:CMR10;writing-mode:lr-tb;fill:#000000;fill-opacity:1;fill-rule:nonzero;stroke:none"
                     id="text113"><tspan
                       x="0"
                       y="0"
                       id="tspan111">D</tspan></text><g
                     id="g115"
                     transform="translate(78.883,34.854)" /></g></g><g
                 id="g117"
                 transform="translate(-67.061,-24.943)" /></g></g><g
             id="g119"><path
               d="M 0,9.91148 V 74.80176"
               style="fill:none;stroke:var(--color-main);stroke-width:0.3985;stroke-linecap:butt;stroke-linejoin:miter;stroke-miterlimit:10;stroke-dasharray:none;stroke-opacity:1"
               id="path121" /><g
               id="g123"
               transform="rotate(90,-37.40088,37.40088)"><g
                 id="g125"><path
                   d="M -1.19551,1.59401 C -1.09587,0.99626 0,0.09961 0.29886,0 0,-0.09961 -1.09587,-0.99626 -1.19551,-1.59401"
                   style="fill:none;stroke:var(--color-main);stroke-width:0.31879;stroke-linecap:round;stroke-linejoin:round;stroke-miterlimit:10;stroke-dasharray:none;stroke-opacity:1"
                   id="path127" /></g></g><g
               id="g129"><g
                 id="g131"
                 transform="translate(-8.501,39.375)"><g
                   id="g133"><g
                     id="g135"
                     transform="translate(-3.321,-49.286)"><text
                       transform="matrix(1,0,0,-1,3.321,49.286)"
                       style="font-variant:normal;font-weight:normal;font-size:9.9626px;font-family:CMR10;-inkscape-font-specification:CMR10;writing-mode:lr-tb;fill:#000000;fill-opacity:1;fill-rule:nonzero;stroke:none"
                       id="text139"><tspan
                         x="0"
                         y="0"
                         id="tspan137">5</tspan></text><g
                       id="g141"
                       transform="translate(3.321,49.286)" /></g></g><g
                   id="g143"
                   transform="translate(8.501,-39.375)" /></g></g></g><g
             id="g145"><path
               d="m 9.08046,88.67255 52.23973,20.89602"
               style="fill:none;stroke:var(--color-main);stroke-width:0.3985;stroke-linecap:butt;stroke-linejoin:miter;stroke-miterlimit:10;stroke-dasharray:none;stroke-opacity:1"
               id="path147" /><g
               id="g149"
               transform="matrix(0.92844,0.37137,-0.37137,0.92844,61.32018,109.56857)"><g
                 id="g151"><path
                   d="M -1.19551,1.59401 C -1.09587,0.99626 0,0.09961 0.29886,0 0,-0.09961 -1.09587,-0.99626 -1.19551,-1.59401"
                   style="fill:none;stroke:var(--color-main);stroke-width:0.31879;stroke-linecap:round;stroke-linejoin:round;stroke-miterlimit:10;stroke-dasharray:none;stroke-opacity:1"
                   id="path153" /></g></g><g
               id="g155"><g
                 id="g157"
                 transform="translate(32.922,102.724)"><g
                   id="g159"><g
                     id="g161"
                     transform="translate(-44.744,-112.635)"><text
                       transform="matrix(1,0,0,-1,44.744,112.635)"
                       style="font-variant:normal;font-weight:normal;font-size:9.9626px;font-family:CMR10;-inkscape-font-specification:CMR10;writing-mode:lr-tb;fill:#000000;fill-opacity:1;fill-rule:nonzero;stroke:none"
                       id="text165"><tspan
                         x="0"
                         y="0"
                         id="tspan163">3</tspan></text><g
                       id="g167"
                       transform="translate(44.744,112.635)" /></g></g><g
                   id="g169"
                   transform="translate(-32.922,-102.724)" /></g></g></g><g
             id="g171"><path
               d="M 9.20218,3.6808 61.15106,24.4605"
               style="fill:none;stroke:var(--color-main);stroke-width:0.3985;stroke-linecap:butt;stroke-linejoin:miter;stroke-miterlimit:10;stroke-dasharray:none;stroke-opacity:1"
               id="path173" /><g
               id="g175"
               transform="matrix(0.92844,0.37137,-0.37137,0.92844,61.15105,24.4605)"><g
                 id="g177"><path
                   d="M -1.19551,1.59401 C -1.09587,0.99626 0,0.09961 0.29886,0 0,-0.09961 -1.09587,-0.99626 -1.19551,-1.59401"
                   style="fill:none;stroke:var(--color-main);stroke-width:0.31879;stroke-linecap:round;stroke-linejoin:round;stroke-miterlimit:10;stroke-dasharray:none;stroke-opacity:1"
                   id="path179" /></g></g><g
               id="g181"><g
                 id="g183"
                 transform="translate(32.898,4.216)"><g
                   id="g185"><g
                     id="g187"
                     transform="translate(-44.72,-14.127)"><text
                       transform="matrix(1,0,0,-1,44.72,14.127)"
                       style="font-variant:normal;font-weight:normal;font-size:9.9626px;font-family:CMR10;-inkscape-font-specification:CMR10;writing-mode:lr-tb;fill:#000000;fill-opacity:1;fill-rule:nonzero;stroke:none"
                       id="text191"><tspan
                         x="0"
                         y="0"
                         id="tspan189">4</tspan></text><g
                       id="g193"
                       transform="translate(44.72,14.127)" /></g></g><g
                   id="g195"
                   transform="translate(-32.898,-4.216)" /></g></g></g></g></g></g></g></svg>
